<svg width="440" height="440" xmlns="http://www.w3.org/2000/svg">
 <metadata id="metadata8">image/svg+xml</metadata>

 <g>
  <title>background</title>
  <rect fill="none" id="canvas_background" height="442" width="442" y="-1" x="-1"/>
 </g>
 <g>
  <title>Layer 1</title>
  <g id="svg_1">
   <path fill="#ce2e3a" fill-rule="nonzero" id="path14" d="m330.037354,318.939484c23.481354,-26.097717 37.812012,-60.593719 37.937317,-98.435059c0.272034,-23.418671 -5.175995,-45.565338 -14.873322,-65.241318c-19.615997,-40.256027 -56.958649,-70.288025 -101.870667,-79.936005c-9.918671,-1.481346 -20.20401,-2.586685 -30.748016,-2.586685c-11.047974,0 -32.170654,2.685356 -32.170654,2.685356c-66.498108,14.508003 -116.287186,73.725319 -116.287186,144.574669c0,63.23732 39.320938,116.469711 92.749893,137.411453c6.717316,2.54892 14.407959,4.425476 18.525299,0.536926c4.832001,-4.564514 5.041351,-9.543732 5.101349,-23.895325l0.023987,-38.657074c9.278687,3.287354 19.264008,5.076416 29.669342,5.076416c11.713348,0 22.897308,-2.268402 33.135986,-6.387085l0,1.796021l-0.412018,102.876923c0,16.108917 -11.942627,32.635437 -37.717316,32.635437c-106.319733,0 -204.49575,-94.642639 -204.49575,-211.393723c0,-116.751984 94.642693,-211.394657 211.393089,-211.394657c116.752014,0 211.394623,94.642673 211.394623,211.394657c0,55.552017 -21.427979,106.099991 -56.469299,143.827591l23.050659,23.051605l-62.837311,16.835876l-21.059998,5.64267l-1.620026,0.798004l-40.155975,10.394745l16.837341,-62.837555l16.837311,-62.836945l24.06134,24.06308"/>
   <path fill="#cccccc" fill-rule="nonzero" id="path16" d="m167.244019,221.595093c0,-28.251999 22.902679,-51.154663 51.154663,-51.154663c28.252014,0 51.154694,22.902664 51.154694,51.154663c0,28.252014 -22.902679,51.153351 -51.154694,51.153351c-28.251984,0 -51.154663,-22.901337 -51.154663,-51.153351"/>
  </g>
 </g>
</svg>