<svg xmlns="http://www.w3.org/2000/svg" version="1.1" xmlns:xlink="http://www.w3.org/1999/xlink" xmlns:svgjs="http://svgjs.com/svgjs" width="1920" height="1080" preserveAspectRatio="none" viewBox="0 0 1920 1080">
    <g mask="url(&quot;#SvgjsMask1000&quot;)" fill="none">
        <rect width="1920" height="1080" x="0" y="0" fill="rgba(199, 205, 241, 1)"></rect>
        <path d="M0,565.266C113.723,573.216,245.774,590.923,331.38,515.637C417.02,440.321,375.468,296.847,423.062,193.206C470.812,89.226,627.022,25.418,608.338,-87.466C589.534,-201.075,431.153,-223.449,342.028,-296.369C271.276,-354.256,227.612,-451.255,138.545,-471.839C50.392,-492.212,-29.733,-421.448,-118.256,-402.744C-216.823,-381.917,-334.047,-421.269,-410.62,-355.804C-487.791,-289.828,-480.496,-171.187,-504.494,-72.535C-531.234,37.388,-598.634,149.353,-559.31,255.428C-519.67,362.357,-402.641,416.037,-302.885,471.298C-208.505,523.581,-107.631,557.742,0,565.266" fill="#9da7e6"></path>
        <path d="M1920 1632.429C2020.675 1618.018 2094.802 1539.94 2177.949 1481.377 2257.285 1425.499 2356.753 1386.127 2395.817 1297.298 2434.746 1208.776 2410.301 1106.315 2383.787 1013.317 2359.787 929.138 2302.513 863.828 2251.877 792.427 2195.338 712.703 2161.154 604.687 2069.646 570.3530000000001 1977.462 535.765 1875.528 580.5550000000001 1784.017 616.885 1698.944 650.659 1621.5729999999999 700.348 1563.662 771.231 1506.8519999999999 840.766 1486.915 928.2470000000001 1459.72 1013.822 1427.046 1116.636 1359.931 1218.72 1388.382 1322.782 1417.674 1429.923 1513.806 1506.8 1609.785 1562.704 1703.261 1617.15 1812.915 1647.757 1920 1632.429" fill="#f1f3fc"></path>
    </g>
    <defs>
        <mask id="SvgjsMask1000">
            <rect width="1920" height="1080" fill="#ffffff"></rect>
        </mask>
    </defs>
</svg>